<svg xmlns="http://www.w3.org/2000/svg" xmlns:xlink="http://www.w3.org/1999/xlink" width="1196" height="387" viewBox="0 0 1196 387">
  <defs>
    <style>
      .cls-1 {
        fill: #fff;
      }

      .cls-2 {
        clip-path: url(#clip-Gamlis_logo_svg);
      }

      .cls-3 {
        clip-path: url(#clip-path);
      }

      .cls-4, .cls-7 {
        fill: none;
      }

      .cls-5 {
        clip-path: url(#clip-path-2);
      }

      .cls-6 {
        clip-path: url(#clip-path-10);
      }

      .cls-7 {
        stroke: #fff;
        stroke-miterlimit: 10;
        stroke-width: 1.356px;
      }

      .cls-8 {
        clip-path: url(#clip-path-18);
      }

      .cls-9 {
        fill: #e30613;
      }
    </style>
    <clipPath id="clip-path">
      <rect id="Rectangle_1" data-name="Rectangle 1" width="1078.9" height="238" transform="translate(7 14.1)"/>
    </clipPath>
    <clipPath id="clip-path-2">
      <rect id="Rectangle_2" data-name="Rectangle 2" width="1078.9" height="300.9" transform="translate(7 -15.5)"/>
    </clipPath>
    <clipPath id="clip-path-10">
      <rect id="Rectangle_10" data-name="Rectangle 10" width="1078.9" height="238" transform="translate(-6.6 -6.6)"/>
    </clipPath>
    <clipPath id="clip-path-18">
      <rect id="Rectangle_18" data-name="Rectangle 18" class="cls-1" width="1078.9" height="300.9" transform="translate(7 -15.5)"/>
    </clipPath>
    <clipPath id="clip-Gamlis_logo_svg">
      <rect width="1196" height="387"/>
    </clipPath>
  </defs>
  <g id="Gamlis_logo_svg" class="cls-2">
    <g id="Gamlis_Logo_2020" transform="translate(63.356 55.347)">
      <g id="Group_2" data-name="Group 2">
        <g id="Group_1" data-name="Group 1" class="cls-3">
          <path id="Path_1" data-name="Path 1" class="cls-4" d="M245,133.1a119,119,0,1,1-119-119,119.028,119.028,0,0,1,119,119"/>
        </g>
      </g>
      <g id="Group_11" data-name="Group 11">
        <g id="Group_3" data-name="Group 3" class="cls-5">
          <path id="Path_2" data-name="Path 2" class="cls-1" d="M134.7,138.2c5.7-8.2,9.6-13.7,9.6-13.7,37.4-37.2,41.5-60.4,39-68.5-2.4-7.8-6.6-4.6-6.6-4.6l-39.8,60.3s-2.3,5-2.8,6.2c-.9,2.4-3.3,6.3-6.6,11.1-5.6-7.1-9.4-11.9-9.9-12.6a17.554,17.554,0,0,1-2.7-13.1,41.319,41.319,0,0,0-.1-7c-1.6-8.1-12.5-20.9-12.5-20.9L80,50.7c-1.2-.4-1.2,1.1-1.2,1.1s20.9,28.9,21.3,29.7,1.8,2,.4,3-2.5-.8-2.5-.8L74.7,54.3c-1.3-.4-1.3,1.2-1.3,1.2S92.7,83.8,94.2,85.6c1.6,1.8.8,2.8.8,2.8-1.6,1.1-2.8-.8-2.8-.8l-22-29.8c-1.3-.9-1.4,1.1-1.4,1.1S88.9,90.1,89.3,90.5s1.7,1.2.2,2.2a1.894,1.894,0,0,1-2.6-.6L65.1,61.6c-1.2-.7-1.4,1-1.4,1L84.4,99.4a28.388,28.388,0,0,0,14.4,13.5,24.668,24.668,0,0,1,14.1,7.4c2.3,2,6.2,7.1,11,14-18.7,26.2-55.5,70.4-55.5,70.4,3.4,10.1,15,10.7,15,10.7,5.1-10.3,30.8-47.7,47.2-71.2,18.6,28.5,43.5,71.4,43.5,71.4a15.732,15.732,0,0,0,14.3-9.9c0-.1-32.8-41.1-53.7-67.5"/>
        </g>
        <g id="Group_4" data-name="Group 4" class="cls-5">
          <path id="Path_3" data-name="Path 3" class="cls-1" d="M36.5,139.3h2.3V127H36.5v-2.2H52.4v6H50.2c-.6-3.2-1-3.8-3.2-3.8H43v5.1h1.4c1.4,0,1.6-.3,1.9-2.3h2v6.8h-2c-.3-2.1-.5-2.4-1.9-2.4H43v5.3h4c2.6,0,2.9-.9,3.5-4.5h2.2v6.6H36.5Z"/>
        </g>
        <g id="Group_5" data-name="Group 5" class="cls-5">
          <path id="Path_4" data-name="Path 4" class="cls-1" d="M55,135.6h2.2c1.1,2.9,2.5,4.1,5.2,4.1,1.8,0,2.8-.9,2.8-2.2,0-1.6-1.7-1.9-4.3-2.6-2.7-.7-5.9-1.6-5.9-5.3,0-3.1,2.6-5.3,5.9-5.3a5.3,5.3,0,0,1,4.3,1.9l.5-1.8H68v6H65.8c-1.1-2.8-2.3-3.9-4.5-3.9-1.7,0-2.6,1-2.6,2.1,0,1.7,1.9,2.1,4.4,2.7,2.7.7,5.7,1.6,5.7,5.2,0,3.2-2.5,5.4-6.2,5.4a6.736,6.736,0,0,1-4.9-2l-.6,2H55Z"/>
        </g>
        <g id="Group_6" data-name="Group 6" class="cls-5">
          <path id="Path_5" data-name="Path 5" class="cls-1" d="M73.4,139.3H76V126.7h-.6c-2.1,0-2.5.7-3.4,4.8H70v-6.7H86.3v6.7h-2c-.9-4.1-1.4-4.8-3.4-4.8h-.6v12.6h2.6v2.2H73.5v-2.2Z"/>
        </g>
        <g id="Group_7" data-name="Group 7" class="cls-5">
          <path id="Path_6" data-name="Path 6" class="cls-1" d="M161.4,139.4h3.4V129.1a6.3,6.3,0,0,1-3.5-.1v-1.8c2.3.1,4.2-.6,5.1-2h2.4v14.2h3.4v2.1H161.5v-2.1Z"/>
        </g>
        <g id="Group_8" data-name="Group 8" class="cls-5">
          <path id="Path_7" data-name="Path 7" class="cls-1" d="M178.5,135.7a4.673,4.673,0,0,1-5-5c0-3,2.1-5.7,6.2-5.7,4.4,0,6.8,3.5,6.8,7.9,0,5.5-2.9,9.1-7.8,9.1-3.3,0-5-1.5-5-3.4a2.022,2.022,0,0,1,2.1-2.2,1.792,1.792,0,0,1,2,1.8,1.943,1.943,0,0,1-.8,1.6,2.767,2.767,0,0,0,1.6.5c2.3,0,3.6-1.7,3.6-6.3a4.523,4.523,0,0,1-3.7,1.7m1.1-9c-1.4,0-2.1,1.1-2.1,3.5,0,2.6.8,3.6,2.3,3.6,1.4,0,2.4-1.1,2.4-3.4,0-2.5-1.2-3.7-2.6-3.7"/>
        </g>
        <g id="Group_9" data-name="Group 9" class="cls-5">
          <path id="Path_8" data-name="Path 8" class="cls-1" d="M195,125c3.8,0,5.8,1.9,5.8,3.9,0,1.7-1.2,2.9-3.1,3.5,2.1.8,3.6,2,3.6,4.3,0,3-2.6,5.3-6.5,5.3-4.1,0-6.2-2-6.2-4.2,0-1.7,1.2-3,3.3-3.6a4.116,4.116,0,0,1-3-4.1c0-2.9,2.4-5.1,6.1-5.1m-1.9,9.7a3.076,3.076,0,0,0-1.4,2.7c0,1.6,1.1,2.7,3.3,2.7,1.8,0,2.9-1,2.9-2.2-.1-1.7-1.9-2.4-4.8-3.2m3.3-2.9a3.307,3.307,0,0,0,1.3-2.6,2.593,2.593,0,0,0-2.9-2.5c-1.6,0-2.5.9-2.5,2.1,0,1.6,1.5,2.3,4.1,3"/>
        </g>
        <g id="Group_10" data-name="Group 10" class="cls-5">
          <path id="Path_9" data-name="Path 9" class="cls-1" d="M205.9,132.6a6.305,6.305,0,0,1,3.9-1.3c4.1,0,5.7,2.3,5.7,4.9,0,2.9-2.1,5.6-6.5,5.6-3.4,0-5.9-1.4-5.9-3.6a2.126,2.126,0,0,1,2.2-2.3,1.757,1.757,0,0,1,1.9,1.8,2.1,2.1,0,0,1-1,1.8,3.649,3.649,0,0,0,2,.6c1.9,0,2.9-1.2,2.9-3.4,0-2.3-1-3.3-2.9-3.3a4.3,4.3,0,0,0-2.8,1.1l-1.6-.5.6-8.4.6-.6a16.855,16.855,0,0,0,5.3.9,7.924,7.924,0,0,0,4.2-1l.7,1.2a5.461,5.461,0,0,1-5.1,3.1,9.908,9.908,0,0,1-3.8-.7Z"/>
        </g>
      </g>
      <g id="Group_13" data-name="Group 13">
        <g id="Group_12" data-name="Group 12" class="cls-6" transform="translate(-8.46 217.926) rotate(-77.233)">
          <circle id="Ellipse_1" data-name="Ellipse 1" class="cls-7" cx="112.4" cy="112.4" r="112.4"/>
        </g>
      </g>
      <g id="Group_29" data-name="Group 29">
        <g id="Group_14" data-name="Group 14" class="cls-5">
          <path id="Path_10" data-name="Path 10" class="cls-1" d="M461.9,241.9c-15.2,0-26.3-11.7-26.3-28.6,0-16.6,12.6-28.8,26.7-28.8,6.9,0,11.9,2.5,15.2,6.8l1.7-6.7h7.6v21.3h-9.2c-3.2-10-7.5-14.7-13.9-14.7-7.7,0-13.3,6.3-13.3,21.4,0,13.7,4.6,21.7,13.7,21.7a9.286,9.286,0,0,0,7.7-3.7c1.8-2.2,2.7-5.8,2.7-9.8v-1.5h-9.2v-7.2h28.9v7.2h-6.3v21.8h-7.5l-3.2-8.2c-2.7,5.2-7.2,9-15.3,9"/>
        </g>
        <g id="Group_15" data-name="Group 15" class="cls-5">
          <path id="Path_11" data-name="Path 11" class="cls-1" d="M535.1,233.3h7.7v7.2H514v-7.2h7.5V193H514v-7.2h30.1c16.6,0,22.2,7,22.2,13.9,0,6.6-4.1,12-17,13.5v.6c10.5.9,13.9,5.6,14.2,12.1l.2,3.3c.2,3.6.9,4.4,2.6,4.4,1.2,0,2.2-1.2,3.3-4.9l4.9,1.6c-1.6,6.6-4.9,11.6-12.4,11.6-8.6,0-12.4-4.5-12.4-13.7l-.1-2.8c-.1-6.1-1.5-8.6-7.7-8.6h-6.8Zm7.2-23.4c6.5,0,9.3-2.5,9.3-8.8,0-5.7-1.9-8.4-9.1-8.4H535v17.2Z"/>
        </g>
        <g id="Group_16" data-name="Group 16" class="cls-5">
          <path id="Path_12" data-name="Path 12" class="cls-1" d="M592.2,233.3h7.7V193h-7.7v-7.2h28.9V193h-7.6v40.3h7.6v7.3H592.2Z"/>
        </g>
        <g id="Group_17" data-name="Group 17" class="cls-5">
          <path id="Path_13" data-name="Path 13" class="cls-1" d="M672.5,185.8v7.1h-8.2v40.6h9.3c6.6,0,8-1.7,11.6-15.6h6.6v22.7H643.2v-7.2h7.5V193h-7.5v-7.2Z"/>
        </g>
        <g id="Group_18" data-name="Group 18" class="cls-5">
          <path id="Path_14" data-name="Path 14" class="cls-1" d="M742.2,185.8v7.1H734v40.6h9.3c6.6,0,8-1.7,11.6-15.6h6.6v22.7H712.9v-7.2h7.5V193h-7.5v-7.2Z"/>
        </g>
        <g id="Group_19" data-name="Group 19" class="cls-5">
          <path id="Path_15" data-name="Path 15" class="cls-1" d="M782.7,233.3h7.5V193h-7.5v-7.2h52.1v19.5h-7.2c-2.1-10.4-3.3-12.4-10.3-12.4H803.8v16.6h4.5c4.7,0,5.1-.9,6.2-7.7H821V224h-6.5c-1-6.8-1.7-7.8-6.2-7.8h-4.5v17.3H817c8.4,0,9.4-3,11.4-14.6h7.2v21.7H782.7Z"/>
        </g>
        <g id="Group_20" data-name="Group 20" class="cls-5">
          <path id="Path_16" data-name="Path 16" class="cls-1" d="M873.6,198.8h-.7v34.5h7.4v7.3h-22v-7.3h7.1V193h-7.1v-7.2h23.3l23.2,38.3h.8V193h-7.5v-7.2h22.1V193H913v48.3H899.3Z"/>
        </g>
        <g id="Group_21" data-name="Group 21" class="cls-8">
          <path id="Path_17" data-name="Path 17" class="cls-1" d="M334.6,162.5c-36.6,0-63.3-28-63.3-68.9,0-39.8,30.2-69.3,64.3-69.3,16.6,0,28.6,6,36.6,16.4l4.2-16h18.2V76H372.4c-7.6-24-18-35.2-33.4-35.2-18.4,0-32,15.2-32,51.5,0,33,11,52.3,33,52.3a22.183,22.183,0,0,0,18.4-8.8c4.4-5.2,6.4-14,6.4-23.6v-3.6h-22V91h69.5v17.4H397.1v52.5h-18l-7.6-19.8c-6.4,12.2-17.4,21.4-36.9,21.4"/>
        </g>
        <g id="Group_22" data-name="Group 22" class="cls-5">
          <path id="Path_18" data-name="Path 18" class="cls-1" d="M501.5,117.3H456.4L448,141.9h16.6v17.4H413.9V141.9h14.4L470.8,26.8h32.8l41.8,115.1H561v17.4H492V141.9h17.8Zm-39.7-15.8h34.4L479.6,52.2h-.8Z"/>
        </g>
        <g id="Group_23" data-name="Group 23" class="cls-5">
          <path id="Path_19" data-name="Path 19" class="cls-1" d="M567.1,141.9h17.2V45H567.1V27.6h63.5L659,108.9h.6l26.7-81.3h62.2V45H730.9v96.9h17.6v17.4H681.7V141.9h16.6V49.2h-1.8L657.6,159.5H644.2L604,49.2h-1.8v92.7h16.6v17.4H567.1Z"/>
        </g>
        <g id="Group_24" data-name="Group 24" class="cls-5">
          <path id="Path_20" data-name="Path 20" class="cls-1" d="M830,27.6v17H810.2v97.7h22.4c15.8,0,19.2-4,27.8-37.4h15.8v54.5H759.6V142h18V45h-18V27.6Z"/>
        </g>
        <g id="Group_25" data-name="Group 25" class="cls-5">
          <path id="Path_21" data-name="Path 21" class="cls-1" d="M889.3,141.9h18.4V45H889.3V27.6h69.5V45H940.4v96.9h18.4v17.4H889.3Z"/>
        </g>
        <g id="Group_26" data-name="Group 26" class="cls-5">
          <path id="Path_22" data-name="Path 22" class="cls-1" d="M975.4,113.3H993c8.6,22.4,19.6,32.6,40.8,32.6,14.2,0,22.2-7,22.2-17.4,0-12.2-13.4-15.2-33.4-20.2-21.6-5.2-46.1-12.6-46.1-42.1,0-24.4,20.6-41.9,46.3-41.9,14.4,0,26.8,5.4,33.6,14.6l4.2-14.2h17.6V71.6h-17.6c-8.4-21.8-18.2-30.6-35.2-30.6-13.4,0-20.6,7.8-20.6,16.8,0,13.2,14.6,16.2,34.4,21,21.4,5.2,45.1,12.2,45.1,40.9,0,25-19.8,42.9-48.5,42.9-16.4,0-30.8-6.8-38.2-16l-4.8,15.6H975.4Z"/>
        </g>
        <g id="Group_27" data-name="Group 27" class="cls-5">
          <path id="Path_23" data-name="Path 23" class="cls-9" d="M413.1,215.6H272.4a2.5,2.5,0,0,1,0-5H413.1a2.5,2.5,0,0,1,0,5"/>
        </g>
        <g id="Group_28" data-name="Group 28" class="cls-5">
          <path id="Path_24" data-name="Path 24" class="cls-9" d="M1083.4,215.7H942.6a2.5,2.5,0,0,1,0-5h140.7a2.476,2.476,0,0,1,2.5,2.5,2.393,2.393,0,0,1-2.4,2.5"/>
        </g>
      </g>
    </g>
  </g>
</svg>
